HIERARCHY
ROOT Root
{
  OFFSET 0.0 0.0 0.0
  CHANNELS 6 Xposition Yposition Zposition Zrotation Yrotation Xrotation
  JOINT Hips
  {
    OFFSET 0.0 100.0 0.0
    CHANNELS 6 Xposition Yposition Zposition Zrotation Yrotation Xrotation
    JOINT Spine1
    {
      OFFSET 5.003913 -0.037094 -0.013727
      CHANNELS 3 Zrotation Yrotation Xrotation
      JOINT Spine2
      {
        OFFSET 7.125363 -1e-06 0.0
        CHANNELS 3 Zrotation Yrotation Xrotation
        JOINT Chest
        {
          OFFSET 7.594027 1e-06 0.0
          CHANNELS 3 Zrotation Yrotation Xrotation
          JOINT Neck1
          {
            OFFSET 26.313086 -0.460272 -0.181672
            CHANNELS 3 Zrotation Yrotation Xrotation
            JOINT Neck2
            {
              OFFSET 8.045911 0.0 0.0
              CHANNELS 3 Zrotation Yrotation Xrotation
              JOINT Head
              {
                OFFSET 6.432774 0.0 0.0
                CHANNELS 3 Zrotation Yrotation Xrotation
                JOINT HeadEnd
                {
                  OFFSET 16.169773 0.06451 0.00362
                  CHANNELS 3 Zrotation Yrotation Xrotation
                }
                JOINT Jaw
                {
                  OFFSET 0.108741 3.12938 0.002639
                  CHANNELS 3 Zrotation Yrotation Xrotation
                }
                JOINT LeftEye
                {
                  OFFSET 4.45173 8.166359 3.206392
                  CHANNELS 3 Zrotation Yrotation Xrotation
                }
                JOINT RightEye
                {
                  OFFSET 4.436895 8.135758 -3.222429
                  CHANNELS 3 Zrotation Yrotation Xrotation
                }
              }
            }
          }
          JOINT LeftShoulder
          {
            OFFSET 23.218927 5.195579 1.621656
            CHANNELS 3 Zrotation Yrotation Xrotation
            JOINT LeftArm
            {
              OFFSET 15.902118 2e-06 -2e-06
              CHANNELS 3 Zrotation Yrotation Xrotation
              JOINT LeftForeArm
              {
                OFFSET 28.739307 0.0 -1e-06
                CHANNELS 3 Zrotation Yrotation Xrotation
                JOINT LeftHand
                {
                  OFFSET 27.093981 -4e-06 0.0
                  CHANNELS 3 Zrotation Yrotation Xrotation
                  JOINT LeftHandThumb1
                  {
                    OFFSET 2.276781 3.380274 0.83384
                    CHANNELS 3 Zrotation Yrotation Xrotation
                    JOINT LeftHandThumb2
                    {
                      OFFSET 4.705309 -1e-06 -1e-06
                      CHANNELS 3 Zrotation Yrotation Xrotation
                      JOINT LeftHandThumb3
                      {
                        OFFSET 2.798515 0.0 3e-06
                        CHANNELS 3 Zrotation Yrotation Xrotation
                        JOINT LeftHandThumbEnd
                        {
                          OFFSET 3.180793 4e-06 -4e-06
                          CHANNELS 3 Zrotation Yrotation Xrotation
                        }
                      }
                    }
                  }
                  JOINT LeftHandIndex1
                  {
                    OFFSET 3.247786 2.352677 0.137192
                    CHANNELS 3 Zrotation Yrotation Xrotation
                    JOINT LeftHandIndex2
                    {
                      OFFSET 6.367095 1e-06 0.0
                      CHANNELS 3 Zrotation Yrotation Xrotation
                      JOINT LeftHandIndex3
                      {
                        OFFSET 3.662364 0.0 0.0
                        CHANNELS 3 Zrotation Yrotation Xrotation
                        JOINT LeftHandIndex4
                        {
                          OFFSET 2.329242 4e-06 -4e-06
                          CHANNELS 3 Zrotation Yrotation Xrotation
                          JOINT LeftHandIndexEnd
                          {
                            OFFSET 2.767823 1e-06 0.0
                            CHANNELS 3 Zrotation Yrotation Xrotation
                          }
                        }
                      }
                    }
                  }
                  JOINT LeftHandMiddle1
                  {
                    OFFSET 3.163612 0.945023 -0.406112
                    CHANNELS 3 Zrotation Yrotation Xrotation
                    JOINT LeftHandMiddle2
                    {
                      OFFSET 6.276789 3e-06 0.0
                      CHANNELS 3 Zrotation Yrotation Xrotation
                      JOINT LeftHandMiddle3
                      {
                        OFFSET 4.35652 -1e-06 4e-06
                        CHANNELS 3 Zrotation Yrotation Xrotation
                        JOINT LeftHandMiddle4
                        {
                          OFFSET 2.996877 0.0 8e-06
                          CHANNELS 3 Zrotation Yrotation Xrotation
                          JOINT LeftHandMiddleEnd
                          {
                            OFFSET 2.323256 3e-06 -4e-06
                            CHANNELS 3 Zrotation Yrotation Xrotation
                          }
                        }
                      }
                    }
                  }
                  JOINT LeftHandRing1
                  {
                    OFFSET 2.882606 -0.309162 0.107445
                    CHANNELS 3 Zrotation Yrotation Xrotation
                    JOINT LeftHandRing2
                    {
                      OFFSET 6.033198 0.0 4e-06
                      CHANNELS 3 Zrotation Yrotation Xrotation
                      JOINT LeftHandRing3
                      {
                        OFFSET 4.350578 3e-06 0.0
                        CHANNELS 3 Zrotation Yrotation Xrotation
                        JOINT LeftHandRing4
                        {
                          OFFSET 2.651321 2e-06 -7e-06
                          CHANNELS 3 Zrotation Yrotation Xrotation
                          JOINT LeftHandRingEnd
                          {
                            OFFSET 1.937663 1e-06 -4e-06
                            CHANNELS 3 Zrotation Yrotation Xrotation
                          }
                        }
                      }
                    }
                  }
                  JOINT LeftHandPinky1
                  {
                    OFFSET 2.865315 -1.525436 0.575687
                    CHANNELS 3 Zrotation Yrotation Xrotation
                    JOINT LeftHandPinky2
                    {
                      OFFSET 5.54936 1e-06 -8e-06
                      CHANNELS 3 Zrotation Yrotation Xrotation
                      JOINT LeftHandPinky3
                      {
                        OFFSET 3.070974 0.0 -4e-06
                        CHANNELS 3 Zrotation Yrotation Xrotation
                        JOINT LeftHandPinky4
                        {
                          OFFSET 1.549672 1e-06 0.0
                          CHANNELS 3 Zrotation Yrotation Xrotation
                          JOINT LeftHandPinkyEnd
                          {
                            OFFSET 1.952123 0.0 0.0
                            CHANNELS 3 Zrotation Yrotation Xrotation
                          }
                        }
                      }
                    }
                  }
                }
              }
            }
          }
          JOINT RightShoulder
          {
            OFFSET 23.161716 5.296122 -1.380114
            CHANNELS 3 Zrotation Yrotation Xrotation
            JOINT RightArm
            {
              OFFSET -16.027195 -2e-06 1.1e-05
              CHANNELS 3 Zrotation Yrotation Xrotation
              JOINT RightForeArm
              {
                OFFSET -28.736639 4e-06 2e-06
                CHANNELS 3 Zrotation Yrotation Xrotation
                JOINT RightHand
                {
                  OFFSET -27.133619 6e-06 0.0
                  CHANNELS 3 Zrotation Yrotation Xrotation
                  JOINT RightHandThumb1
                  {
                    OFFSET -2.274328 -3.351035 -0.83067
                    CHANNELS 3 Zrotation Yrotation Xrotation
                    JOINT RightHandThumb2
                    {
                      OFFSET -4.703594 -3e-06 2e-06
                      CHANNELS 3 Zrotation Yrotation Xrotation
                      JOINT RightHandThumb3
                      {
                        OFFSET -2.794935 -4e-06 -3e-06
                        CHANNELS 3 Zrotation Yrotation Xrotation
                        JOINT RightHandThumbEnd
                        {
                          OFFSET -3.183852 4e-06 1e-06
                          CHANNELS 3 Zrotation Yrotation Xrotation
                        }
                      }
                    }
                  }
                  JOINT RightHandIndex1
                  {
                    OFFSET -3.253496 -2.33755 -0.127667
                    CHANNELS 3 Zrotation Yrotation Xrotation
                    JOINT RightHandIndex2
                    {
                      OFFSET -6.344434 0.0 0.0
                      CHANNELS 3 Zrotation Yrotation Xrotation
                      JOINT RightHandIndex3
                      {
                        OFFSET -3.654871 0.0 -8e-06
                        CHANNELS 3 Zrotation Yrotation Xrotation
                        JOINT RightHandIndex4
                        {
                          OFFSET -2.327586 -1e-06 0.0
                          CHANNELS 3 Zrotation Yrotation Xrotation
                          JOINT RightHandIndexEnd
                          {
                            OFFSET -2.770001 3e-06 8e-06
                            CHANNELS 3 Zrotation Yrotation Xrotation
                          }
                        }
                      }
                    }
                  }
                  JOINT RightHandMiddle1
                  {
                    OFFSET -3.168223 -0.944764 0.411762
                    CHANNELS 3 Zrotation Yrotation Xrotation
                    JOINT RightHandMiddle2
                    {
                      OFFSET -6.266691 -1e-06 -4e-06
                      CHANNELS 3 Zrotation Yrotation Xrotation
                      JOINT RightHandMiddle3
                      {
                        OFFSET -4.348901 0.0 0.0
                        CHANNELS 3 Zrotation Yrotation Xrotation
                        JOINT RightHandMiddle4
                        {
                          OFFSET -3.00024 2e-06 -4e-06
                          CHANNELS 3 Zrotation Yrotation Xrotation
                          JOINT RightHandMiddleEnd
                          {
                            OFFSET -2.321477 -4e-06 -4e-06
                            CHANNELS 3 Zrotation Yrotation Xrotation
                          }
                        }
                      }
                    }
                  }
                  JOINT RightHandRing1
                  {
                    OFFSET -2.885654 0.293261 -0.119232
                    CHANNELS 3 Zrotation Yrotation Xrotation
                    JOINT RightHandRing2
                    {
                      OFFSET -6.032835 -1e-06 -4e-06
                      CHANNELS 3 Zrotation Yrotation Xrotation
                      JOINT RightHandRing3
                      {
                        OFFSET -4.33881 0.0 -4e-06
                        CHANNELS 3 Zrotation Yrotation Xrotation
                        JOINT RightHandRing4
                        {
                          OFFSET -2.654903 -4e-06 -4e-06
                          CHANNELS 3 Zrotation Yrotation Xrotation
                          JOINT RightHandRingEnd
                          {
                            OFFSET -1.935122 0.0 4e-06
                            CHANNELS 3 Zrotation Yrotation Xrotation
                          }
                        }
                      }
                    }
                  }
                  JOINT RightHandPinky1
                  {
                    OFFSET -2.866241 1.503904 -0.60527
                    CHANNELS 3 Zrotation Yrotation Xrotation
                    JOINT RightHandPinky2
                    {
                      OFFSET -5.553177 -2e-06 0.0
                      CHANNELS 3 Zrotation Yrotation Xrotation
                      JOINT RightHandPinky3
                      {
                        OFFSET -3.062664 -1e-06 -4e-06
                        CHANNELS 3 Zrotation Yrotation Xrotation
                        JOINT RightHandPinky4
                        {
                          OFFSET -1.546529 2e-06 4e-06
                          CHANNELS 3 Zrotation Yrotation Xrotation
                          JOINT RightHandPinkyEnd
                          {
                            OFFSET -1.952341 0.0 -4e-06
                            CHANNELS 3 Zrotation Yrotation Xrotation
                          }
                        }
                      }
                    }
                  }
                }
              }
            }
          }
        }
      }
    }
    JOINT LeftLeg
    {
      OFFSET -8.443107 2.567604 10.043214
      CHANNELS 3 Zrotation Yrotation Xrotation
      JOINT LeftShin
      {
        OFFSET 43.229198 1e-06 -1e-06
        CHANNELS 3 Zrotation Yrotation Xrotation
        JOINT LeftFoot
        {
          OFFSET 42.298611 1e-06 1e-06
          CHANNELS 3 Zrotation Yrotation Xrotation
          JOINT LeftToeBase
          {
            OFFSET 14.165858 1e-06 0.0
            CHANNELS 3 Zrotation Yrotation Xrotation
            JOINT LeftToeEnd
            {
              OFFSET 6.7141 -0.234461 0.0
              CHANNELS 3 Zrotation Yrotation Xrotation
            }
          }
        }
      }
    }
    JOINT RightLeg
    {
      OFFSET -8.303923 2.592729 -10.047278
      CHANNELS 3 Zrotation Yrotation Xrotation
      JOINT RightShin
      {
        OFFSET -43.369682 0.0 1e-06
        CHANNELS 3 Zrotation Yrotation Xrotation
        JOINT RightFoot
        {
          OFFSET -42.260784 4e-06 2e-06
          CHANNELS 3 Zrotation Yrotation Xrotation
          JOINT RightToeBase
          {
            OFFSET -14.222245 -2e-06 -1e-06
            CHANNELS 3 Zrotation Yrotation Xrotation
            JOINT RightToeEnd
            {
              OFFSET -6.660062 0.232574 -2e-06
              CHANNELS 3 Zrotation Yrotation Xrotation
            }
          }
        }
      }
    }
  }
}
MOTION
Frames: 4
Frame Time: 0.03333333333333333
0.0 0.0 0.0 0.0 -0.0 0.0 8.348318 10.216225 115.778229 -33.093987 -84.748344 -138.16684 -4.487766 0.116573 0.118317 -12.319207 0.027911 -0.382526 13.620077 -1.296103 -1.451002 14.723364 -6.462702 0.403491 -2.203298 0.963135 -3.861853 -23.69898 -2.368738 -4.118621 6e-06 0.0 -0.0 -0.279277 0.213143 -0.005603 -0.211469 0.280675 0.046949 -0.131934 0.15143 -0.059453 -27.972723 -82.515961 37.469257 20.400784 -33.480778 -72.290649 134.794983 2.417341 -0.284127 -7.579563 25.352398 7.459608 17.636633 -26.322737 52.411213 -19.466663 -14.395597 29.410395 -0.0 -8.774821 -3e-06 15.068291 -18.411453 6.61582 -0.609776 -1.795654 -3.889328 -4.807088 -11.04681 -2.937851 5e-06 -20.976021 2e-06 -5.019967 -25.03356 -4.031883 6e-06 -0.0 1e-06 -10.634535 -5.68697 -3.565588 10.573277 -17.922951 -3.113902 4e-06 -13.821212 1e-06 -0.501773 -31.181505 -4.027016 -12.374195 -57.856113 7.692992 -13.982714 -7.150198 -2.875044 13.772731 -8.401494 -3.21824 0.347738 -34.211555 0.771652 -0.963028 -17.73337 2.62102 -0.0 -1e-06 1e-06 -17.346418 -20.095221 -4.201784 21.757557 -1.638375 3.866429 2e-06 -6.338825 0.0 -1.697587 -22.591745 -6.194009 -1e-06 -4e-06 -2e-06 135.555984 -72.960945 57.469368 19.316853 -47.210823 -76.254845 146.950653 1.459445 -0.209686 -6.149425 20.439062 28.051491 22.182117 -20.375896 49.933323 -16.701817 -16.74353 28.476532 -2e-06 -12.690603 -1e-06 16.247471 -17.586647 2.791256 -0.105919 -1.513856 -4.275882 -5.039042 -5.612873 -2.953557 4e-06 -11.020525 -2e-06 -6.1113 -15.895334 -3.84047 -0.0 -1e-06 0.0 -10.283373 -5.680289 -4.341838 11.028297 -11.302406 -2.372633 -1.384269 -14.238584 -6.320122 -0.625439 -26.924196 -3.827603 -4.454431 -50.141445 -3.866338 -13.708529 -7.363479 -3.720939 18.141153 -14.05274 -3.242675 5e-06 -18.78727 -1e-06 -0.429711 -8.456046 2.555504 0.0 1e-06 1e-06 -15.923539 -20.094492 -5.473584 30.419218 -7.190824 1.735927 4e-06 -8.16293 -1e-06 -1.861905 -22.861469 -6.167943 -2e-06 -1e-06 -1e-06 160.639328 -25.521177 -67.475517 23.79302 -19.653582 40.905334 -56.513039 8.672494 0.649174 -6.190124 1.569513 2.913004 -0.999997 1e-06 1e-06 -3.402573 -10.885037 125.860046 -2.637046 18.475416 -107.489563 -75.05986 -12.77607 -20.486116 -9.949275 0.509154 1.239561 -1.000003 -0.0 -0.0 
0.0 0.0 0.0 0.0 -0.0 0.0 8.371193 10.210872 115.779701 -33.33667 -84.720917 -138.031738 -4.493566 0.129006 0.099055 -12.339471 0.037278 -0.367563 13.621586 -1.266558 -1.394373 14.796187 -6.55293 0.389318 -2.201046 0.959499 -3.839534 -23.806047 -2.246158 -4.023388 6e-06 0.0 -0.0 -0.281884 0.193215 -0.002475 -0.202617 0.252666 0.057493 -0.126 0.13998 -0.063638 -28.142761 -82.484673 37.715332 20.341703 -33.469456 -72.271835 134.878983 2.440988 -0.274471 -7.617656 25.516945 7.640918 17.636625 -26.322731 52.411182 -19.466658 -14.395594 29.410378 1e-06 -8.77482 -3e-06 15.057121 -18.42256 6.634725 -0.609776 -1.795654 -3.889326 -4.807088 -11.046811 -2.937851 4e-06 -20.976019 2e-06 -5.019969 -25.03356 -4.031879 7e-06 2e-06 -0.0 -10.634531 -5.68697 -3.565587 10.573271 -17.922951 -3.1139 2e-06 -13.821211 1e-06 -0.501777 -31.181501 -4.027012 -12.374986 -57.888641 7.705096 -13.982711 -7.150198 -2.875041 13.772725 -8.401493 -3.218239 0.347733 -34.211555 0.771655 -0.963028 -17.733372 2.621019 -0.0 -1e-06 0.0 -17.346413 -20.095215 -4.201779 21.757551 -1.638373 3.866427 1e-06 -6.338826 1e-06 -1.69759 -22.591745 -6.194004 -0.0 -5e-06 -3e-06 135.934708 -72.933617 57.16832 19.415888 -47.219246 -76.398659 146.998749 1.436343 -0.176571 -6.251081 20.507975 28.082247 22.182112 -20.375889 49.933315 -16.701815 -16.743526 28.476528 -3e-06 -12.690601 -1e-06 16.327444 -17.594345 2.772933 -0.105919 -1.513856 -4.27588 -5.039042 -5.612872 -2.953556 4e-06 -11.02052 -2e-06 -6.111298 -15.89533 -3.840471 -0.0 -1e-06 -0.0 -10.283372 -5.680288 -4.341838 11.028296 -11.302406 -2.372633 -1.384269 -14.238584 -6.320122 -0.625437 -26.924194 -3.827602 -4.448406 -50.214214 -3.8827 -13.708526 -7.363476 -3.720938 18.141148 -14.052739 -3.242675 7e-06 -18.78727 -2e-06 -0.429711 -8.456043 2.555503 -0.0 1e-06 -0.0 -15.923536 -20.094482 -5.473585 30.41921 -7.190827 1.735925 5e-06 -8.162929 -1e-06 -1.861902 -22.861467 -6.167943 -1e-06 -2e-06 -1e-06 160.645935 -25.528242 -67.757774 23.69421 -19.821814 41.278103 -56.592197 8.736262 0.730936 -6.240466 1.561332 2.905112 -0.999997 -0.0 1e-06 -3.450236 -10.930224 126.297142 -2.819826 18.389462 -108.094482 -75.098885 -12.708603 -20.526001 -9.868115 0.516672 1.244448 -1.000003 -0.0 1e-06 
0.0 0.0 0.0 0.0 -0.0 0.0 8.376266 10.20782 115.783249 -33.626369 -84.705132 -137.832672 -4.503956 0.145612 0.089984 -12.357064 0.03655 -0.36278 13.626118 -1.253616 -1.339218 14.83069 -6.639605 0.370781 -2.194413 0.976475 -3.792589 -23.897169 -2.167105 -3.941744 6e-06 0.0 0.0 -0.284301 0.179306 -0.001138 -0.197696 0.234004 0.063872 -0.123128 0.131473 -0.067173 -28.262461 -82.460396 37.871876 20.291445 -33.452698 -72.16291 134.94635 2.47197 -0.227158 -7.64545 25.692326 7.794384 17.636625 -26.322729 52.411194 -19.46666 -14.3956 29.410389 -0.0 -8.774822 -2e-06 15.064913 -18.416349 6.625441 -0.609776 -1.795653 -3.889328 -4.807088 -11.046808 -2.937851 6e-06 -20.976015 1e-06 -5.019968 -25.033552 -4.031881 7e-06 1e-06 0.0 -10.634535 -5.686969 -3.565587 10.573277 -17.922947 -3.113902 3e-06 -13.821209 0.0 -0.501776 -31.181498 -4.027015 -12.344217 -57.890682 7.688571 -13.982715 -7.150196 -2.875041 13.772733 -8.401491 -3.218241 0.347737 -34.211544 0.771654 -0.963026 -17.733368 2.62102 -0.0 -2e-06 0.0 -17.346416 -20.095213 -4.201785 21.757563 -1.638376 3.866426 2e-06 -6.338823 1e-06 -1.697588 -22.591738 -6.194004 -1e-06 -6e-06 -1e-06 136.202667 -72.903465 56.970894 19.551374 -47.224689 -76.482903 147.017044 1.432813 -0.158791 -6.26998 20.596798 28.165054 22.182116 -20.375893 49.933308 -16.701809 -16.743528 28.476522 -2e-06 -12.690599 -1e-06 16.417679 -17.610533 2.763777 -0.105919 -1.513855 -4.27588 -5.03904 -5.61287 -2.953555 3e-06 -11.02052 -1e-06 -6.111299 -15.895329 -3.840469 -0.0 -1e-06 -0.0 -10.283369 -5.680287 -4.341837 11.028293 -11.302401 -2.372632 -1.384269 -14.238577 -6.320118 -0.625439 -26.924179 -3.827598 -4.448627 -50.29641 -3.882685 -13.708525 -7.363475 -3.720938 18.141146 -14.052737 -3.242672 4e-06 -18.787262 -0.0 -0.429711 -8.456042 2.555503 -1e-06 1e-06 0.0 -15.923536 -20.094481 -5.473582 30.419207 -7.190823 1.735927 4e-06 -8.162928 -0.0 -1.861902 -22.861467 -6.167942 -1e-06 -2e-06 0.0 160.673889 -25.517933 -67.967262 23.630802 -19.881498 41.510719 -56.621277 8.665184 0.800867 -6.283643 1.55025 2.901535 -1.0 -0.0 0.0 -3.513787 -10.959329 126.769241 -3.003826 18.349873 -108.769585 -75.089401 -12.582773 -20.571951 -9.803306 0.522315 1.252035 -1.000002 0.0 -0.0 
0.0 0.0 0.0 0.0 -0.0 0.0 8.368837 10.185122 115.798698 -33.99625 -84.70816 -137.529449 -4.515011 0.156076 0.082005 -12.365403 0.031756 -0.362138 13.632183 -1.262684 -1.293955 14.826612 -6.70158 0.34387 -2.187283 0.996861 -3.70792 -23.951506 -2.140527 -3.858558 6e-06 0.0 0.0 -0.28421 0.174258 -0.001399 -0.190488 0.228052 0.065993 -0.119594 0.128207 -0.069685 -28.326546 -82.456001 37.91946 20.242592 -33.417622 -71.989265 134.986664 2.521406 -0.164542 -7.69921 25.86867 7.836812 17.636629 -26.322733 52.411201 -19.466665 -14.395606 29.410395 -0.0 -8.774826 -2e-06 15.070621 -18.387384 6.591477 -0.609776 -1.795654 -3.889327 -4.807089 -11.04681 -2.93785 6e-06 -20.976021 1e-06 -5.01997 -25.03356 -4.031882 7e-06 -1e-06 1e-06 -10.634537 -5.68697 -3.565588 10.573279 -17.922953 -3.113902 3e-06 -13.821213 1e-06 -0.501775 -31.181505 -4.027015 -12.287073 -57.868607 7.637309 -13.982718 -7.150197 -2.87504 13.772735 -8.401493 -3.218241 0.347738 -34.211555 0.771654 -0.963028 -17.73337 2.621021 -0.0 -1e-06 1e-06 -17.346424 -20.095217 -4.201782 21.757566 -1.638378 3.866429 2e-06 -6.338825 1e-06 -1.697586 -22.591743 -6.194008 -1e-06 -6e-06 -1e-06 136.317474 -72.869217 56.911114 19.732224 -47.240025 -76.493454 147.042999 1.439721 -0.153665 -6.207721 20.723219 28.285418 22.182117 -20.375895 49.933319 -16.701811 -16.74353 28.476528 -2e-06 -12.690603 -1e-06 16.473249 -17.633038 2.767416 -0.105919 -1.513856 -4.275881 -5.03904 -5.612871 -2.953557 4e-06 -11.02052 -2e-06 -6.111298 -15.895334 -3.840471 -0.0 -0.0 0.0 -10.283371 -5.680287 -4.341838 11.028296 -11.302402 -2.372633 -1.384268 -14.238577 -6.320121 -0.625438 -26.924175 -3.827599 -4.454457 -50.386108 -3.857666 -13.708527 -7.363474 -3.720938 18.141151 -14.052737 -3.242674 6e-06 -18.787266 -0.0 -0.429712 -8.456043 2.555504 0.0 1e-06 1e-06 -15.923538 -20.094479 -5.473584 30.419214 -7.190823 1.735926 4e-06 -8.162927 -1e-06 -1.861904 -22.861464 -6.167941 -1e-06 -2e-06 0.0 160.758057 -25.464693 -68.175064 23.520292 -19.85504 41.693024 -56.582157 8.538097 0.830549 -6.30022 1.545307 2.89731 -0.999999 -0.0 -1e-06 -3.545815 -11.000681 127.197304 -3.150309 18.274536 -109.387321 -74.896973 -12.369897 -20.639235 -9.748497 0.524318 1.258055 -1.000002 -0.0 -0.0 
